HIERARCHY
ROOT pelvis
{
  OFFSET 0 100 0
  CHANNELS 6 Xposition Yposition Zposition Zrotation Xrotation Yrotation
  JOINT pelvis_right_femur
  {
    OFFSET -10.78128 -3.44521 -0.5502486
    CHANNELS 3 Zrotation Xrotation Yrotation
    JOINT right_femur_tibia
    {
      OFFSET -0.8047443 -44.0398 -0.1307829
      CHANNELS 3 Zrotation Xrotation Yrotation
      JOINT right_tibia_foot
      {
        OFFSET 3.006224 -47.83518 -5
        CHANNELS 3 Zrotation Xrotation Yrotation
        End Site
        {
          OFFSET 0 -5 15
        }
      }
    }
  }
  JOINT pelvis_left_femur
  {
    OFFSET 10.78128 -3.44521 -0.5502486
    CHANNELS 3 Zrotation Xrotation Yrotation
    JOINT left_femur_tibia
    {
      OFFSET 0.8047443 -44.0398 -0.1307829
      CHANNELS 3 Zrotation Xrotation Yrotation
      JOINT left_tibia_foot
      {
        OFFSET -4.370144 -48.10324 -4.275266
        CHANNELS 3 Zrotation Xrotation Yrotation
        End Site
        {
          OFFSET 0 -5 15
        }
      }
    }
  }
  JOINT pelvis_spine1
  {
    OFFSET 0 6.468898 -3.129235
    CHANNELS 3 Zrotation Xrotation Yrotation
    JOINT spine1
    {
      OFFSET 0 23.15396 4.99043
      CHANNELS 3 Zrotation Xrotation Yrotation
      JOINT spine2
      {
        OFFSET 0 20.79997 -5.064912
        CHANNELS 3 Zrotation Xrotation Yrotation
        JOINT neck
        {
          OFFSET 0 14.38658 9.616178
          CHANNELS 3 Zrotation Xrotation Yrotation
          End Site
          {
            OFFSET 0 20 0
          }
        }
      }
      JOINT right_manubrium
      {
        OFFSET -5.722621 16.35077 3.967754
        CHANNELS 3 Zrotation Xrotation Yrotation
        JOINT right_clavicle
        {
          OFFSET -13.16364 1.694482 -4.693211
          CHANNELS 3 Zrotation Xrotation Yrotation
          JOINT right_humerus
          {
            OFFSET -28.5034 -0.3100689 -2.792744
            CHANNELS 3 Zrotation Xrotation Yrotation
            JOINT right_radius
            {
              OFFSET -25.15693 0.02248979 -1.271978
              CHANNELS 3 Zrotation Xrotation Yrotation
              End Site
              {
                OFFSET -15 0 0
              }
            }
          }
        }
      }
      JOINT left_manubrium
      {
        OFFSET 5.722621 16.35077 3.967754
        CHANNELS 3 Zrotation Xrotation Yrotation
        JOINT left_clavicle
        {
          OFFSET 13.16364 1.694482 -4.693211
          CHANNELS 3 Zrotation Xrotation Yrotation
          JOINT left_humerus
          {
            OFFSET 29.39168 -1.063119 -2.237045
            CHANNELS 3 Zrotation Xrotation Yrotation
            JOINT left_radius
            {
              OFFSET 24.59957 -0.9528479 0.9047498
              CHANNELS 3 Zrotation Xrotation Yrotation
              End Site
              {
                OFFSET 15 -0 -0
              }
            }
          }
        }
      }
    }
  }
}
MOTION
Frames: 10
Frame Time: 0.0416666666667
38.87336 103.5206 252.4506 2.363422 -7.838952 4.964679 0.7862774 12.19213 7.096438 -4.402019e-07 37.7219 1.47753e-07 4.843544 -9.575453 -4.828876 -3.246817 -13.34946 -9.39645 -8.285803e-07 20.14661 -9.018802e-08 -6.905265 -9.845454 19.36169 -2.302252 -0.1109627 6.885554 -0.5531474 9.405417 -3.476149 2.062738 22.00285 6.009698 2.102462 -17.14618 8.02779 2.230798 -20.39402 11.13407 82.51391 23.97769 -9.281477 -5.409825e-08 1.097087e-07 23.8275 -25.33393 13.58112 14.38105 3.702929 -13.51455 -3.054171 -95.22154 25.42812 26.57859 -3.413535e-08 1.990847e-07 -8.265956 -6.189752 5.156417 20.402
40.31772 104.0912 258.3279 2.633907 -8.409004 5.298677 0.2478403 9.996996 7.200229 -3.892882e-07 44.48953 -7.136164e-08 4.481343 -7.974497 -5.615024 -4.162084 -9.966411 -10.2815 -8.221315e-07 21.07078 5.207677e-08 -6.335668 -10.34778 19.30685 -2.658497 -0.1867441 6.321195 -0.59291 9.494746 -3.780127 2.053511 22.31836 6.090556 2.055167 -16.90818 8.176993 2.573443 -19.60033 10.9767 83.1429 24.39136 -10.11853 -2.410747e-08 1.495439e-07 22.38063 -24.70246 13.46573 13.79277 3.401214 -13.63569 -3.280332 -94.01267 26.09912 24.93344 -1.454444e-07 1.104526e-07 -8.320534 -5.914337 5.476725 20.10353
41.68257 104.9363 263.8833 2.944785 -8.963317 5.859375 -0.231255 6.749096 7.188342 -2.187639e-07 50.26254 -3.780396e-07 4.131972 -7.18672 -6.611481 -4.956988 -5.816097 -11.09018 -8.822245e-07 20.98328 4.543868e-07 -5.589346 -11.25174 19.20226 -3.042586 -0.2553927 5.649204 -0.5517347 9.524539 -4.275695 2.028669 22.68562 6.120775 1.911998 -16.58235 8.332369 2.846586 -18.7841 10.79069 84.14855 24.84032 -11.32468 5.428571e-10 1.792909e-07 20.84597 -23.92278 13.45435 13.08225 3.178597 -14.01214 -3.569659 -92.50304 26.82611 22.66015 -2.448323e-07 3.469622e-08 -9.058686 -5.551279 5.937855 19.63755
42.94392 105.918 269.126 3.159127 -9.302658 6.576737 -0.4451392 2.565523 7.018952 5.425007e-08 53.78719 -7.39424e-07 3.633685 -7.191081 -7.655259 -5.495784 -1.100829 -11.7659 -9.493369e-07 20.34118 9.836e-07 -4.874949 -12.33814 18.90222 -3.314916 -0.3210441 4.885569 -0.3834974 9.442701 -4.913759 2.002629 22.98154 6.079293 1.691724 -16.2883 8.474625 2.994753 -17.94883 10.55168 85.2831 25.23217 -12.81313 2.064528e-08 1.927956e-07 19.2048 -22.80375 13.47715 12.18398 3.067709 -14.59002 -3.846389 -90.70136 27.48113 19.95525 -3.319369e-07 -2.040815e-08 -10.37665 -5.040077 6.556377 18.93284
44.11194 106.8121 274.1095 3.30802 -9.338331 7.375628 -0.4625304 -1.847349 6.622742 2.671457e-07 54.21224 -9.508047e-07 3.154058 -7.566711 -8.433333 -5.805413 3.218347 -12.28482 -1.002599e-06 18.66865 1.518024e-06 -4.207138 -13.71107 18.65189 -3.493108 -0.3465226 4.198351 -0.1584398 9.275379 -5.502307 1.984741 23.16492 6.047899 1.522153 -16.13236 8.592093 2.969945 -17.2482 10.33396 86.24167 25.42472 -14.2481 3.459698e-08 1.797792e-07 17.73281 -21.76319 13.39995 11.33758 3.209877 -15.29663 -4.09394 -88.9252 27.86155 17.20724 -3.810353e-07 -4.359572e-08 -12.12744 -4.416897 7.225925 18.02051
45.19886 107.4191 278.977 3.343995 -9.062268 8.170359 -0.2931867 -6.379785 5.998015 3.592357e-07 51.35322 -9.512807e-07 2.78023 -8.162067 -8.951677 -5.88043 7.108502 -12.58169 -1.024505e-06 16.36253 2.007413e-06 -3.846271 -15.29474 18.32829 -3.544504 -0.3025071 3.577664 0.1188784 8.987122 -6.008869 1.99024 23.24573 6.044887 1.417122 -16.11585 8.702911 2.770533 -16.60379 10.12426 87.06861 25.40476 -15.62656 4.257654e-08 1.379185e-07 16.36963 -20.93095 13.26735 10.62562 3.624605 -16.08201 -4.275251 -87.27834 27.99229 14.40572 -3.96928e-07 -3.668603e-08 -14.28803 -3.755907 7.812901 17.01246
46.19968 107.6039 283.8183 3.287195 -8.5881 8.896686 0.0009694907 -10.83972 5.21786 3.85093e-07 45.93749 -8.157902e-07 2.418089 -8.875722 -9.231991 -5.806164 10.52742 -12.72483 -9.877104e-07 14.13618 2.393974e-06 -3.744311 -16.94979 17.98606 -3.49579 -0.1809905 3.020376 0.4232721 8.604849 -6.406731 2.022579 23.27425 6.061348 1.380598 -16.20652 8.799535 2.448553 -15.94251 9.919279 87.689 25.2406 -16.90966 4.599531e-08 7.335337e-08 14.9663 -20.2093 13.02492 9.968274 4.241444 -16.90095 -4.385431 -85.70059 27.94323 11.52182 -3.889672e-07 -1.266506e-08 -16.69195 -3.033411 8.357351 15.88408
47.13165 107.3417 288.8264 3.09483 -7.946292 9.510356 0.3642327 -14.89134 4.306855 3.963976e-07 38.84146 -6.19357e-07 2.088805 -9.505435 -9.329312 -5.57983 13.43553 -12.62262 -9.214209e-07 12.52032 2.663075e-06 -4.181554 -18.41061 17.37815 -3.336057 0.001123376 2.502334 0.750242 8.145863 -6.723781 2.067421 23.30931 6.114357 1.397453 -16.41578 8.902026 2.074467 -15.25299 9.72028 88.41252 25.08335 -18.13579 4.493813e-08 -6.567649e-09 13.53168 -19.76744 12.82342 9.538609 4.962809 -17.69932 -4.385666 -84.52623 27.81507 8.799838 -3.722821e-07 1.98806e-08 -19.14104 -2.375232 8.71336 14.87621
47.94975 106.615 293.8757 2.957358 -7.413461 10.01559 0.645415 -18.43053 3.419834 4.733672e-07 31.59327 -4.82379e-07 1.552083 -10.40583 -9.329408 -5.38791 15.74416 -12.53053 -7.973128e-07 11.72192 2.851274e-06 -4.428705 -19.70834 17.00644 -3.224941 0.233191 2.05714 1.04198 7.699867 -6.955544 2.107801 23.42005 6.137509 1.433253 -16.57696 8.949713 1.734592 -14.52086 9.53588 88.81658 25.0581 -19.16797 3.802196e-08 -8.808841e-08 11.93587 -19.18791 12.45312 8.997295 5.648116 -18.47344 -4.35195 -83.19897 27.69183 5.97682 -3.46882e-07 4.478027e-08 -21.46865 -1.607278 9.185593 13.69739
48.64809 105.5771 298.9752 2.779989 -6.976055 10.40836 0.8895127 -21.2267 2.627811 5.833618e-07 25.47506 -4.215709e-07 0.7818308 -11.22098 -9.32063 -5.18756 17.66923 -12.41019 -6.552031e-07 12.1393 2.936469e-06 -4.786012 -20.48881 16.52268 -3.094397 0.4452309 1.623756 1.312647 7.292189 -7.158546 2.133969 23.583 6.126092 1.445893 -16.73522 8.970076 1.483951 -13.77857 9.342083 89.20327 25.22187 -20.05507 3.044417e-08 -1.57798e-07 10.27168 -18.50517 12.07757 8.475792 6.146849 -19.11973 -4.258239 -82.03805 27.63467 3.492208 -3.419094e-07 5.508674e-08 -23.30634 -0.8549998 9.645775 12.60925
